<?xml version="1.0" encoding="utf-8"?>
<!-- Generator: Adobe Illustrator 26.0.1, SVG Export Plug-In . SVG Version: 6.00 Build 0)  -->
<svg version="1.1" xmlns="http://www.w3.org/2000/svg" xmlns:xlink="http://www.w3.org/1999/xlink" x="0px" y="0px"
	 viewBox="0 0 1300 1300" style="enable-background:new 0 0 1300 1300;" xml:space="preserve">
<style type="text/css">
	.st0{fill:#FFFFFF;}
</style>
<g id="Layer_1">
</g>
<g id="Layer_2">
	<rect x="1314.6" y="-11.41" width="1322.82" height="1322.82"/>
	<g>
		<path class="st0" d="M1672.25-1700.15h-24.6h-24.58h-24.58h-24.6h-24.58v24.58v24.58h-24.58v-24.58v-24.58h-24.58h-24.6h-24.58
			h-24.58h-24.6h-0.14v24.58v24.58v24.6v49.3h0.14h24.6v-49.3v-24.6v-24.58h24.58h24.58h24.6v24.58h-24.6h-24.58v24.6v49.3h24.58
			v-49.3h24.6v24.58v74.05v24.6h-24.6v-49.31h-24.58v49.31v24.58h24.58h24.6v24.58h-24.6h-24.58h-24.58v-24.58v-24.58v-49.31h-24.6
			h-0.14v49.31v24.58v24.58v24.58h0.14h24.6h24.58h24.58h24.6h24.58v-24.58v-24.58h24.58v24.58v24.58h24.58h24.6h24.58h24.58h24.6
			h0.14v-24.58v-24.58v-24.58v-49.31h-0.14h-24.6v49.31v24.58v24.58h-24.58h-24.58h-24.6v-24.58h24.6h24.58v-24.58v-49.31h-24.58
			v49.31h-24.6v-24.6v-74.05v-24.58h24.6v49.3h24.58v-49.3v-24.6h-24.58h-24.6v-24.58h24.6h24.58h24.58v24.58v24.6v49.3h24.6h0.14
			v-49.3v-24.6v-24.58v-24.58H1672.25z M1549.31-1601.8v74.05v24.6h-24.58v-24.6v-74.05v-24.58h24.58V-1601.8z"/>
		<g>
			<path class="st0" d="M1771.91-1587.11c-7.92-8-11.87-18.46-11.87-31.39c0-12.93,3.96-23.4,11.87-31.39
				c7.92-7.99,17.95-11.99,30.1-11.99c10.58,0,19.58,2.94,26.98,8.82c7.41,5.88,11.89,13.83,13.46,23.87h-18.34
				c-1.25-5.17-3.84-9.19-7.76-12.05c-3.92-2.86-8.7-4.29-14.34-4.29c-7.52,0-13.38,2.43-17.58,7.29
				c-4.19,4.86-6.29,11.44-6.29,19.75c0,8.31,2.1,14.89,6.29,19.75c4.19,4.86,10.05,7.29,17.58,7.29c5.64,0,10.42-1.43,14.34-4.29
				c3.92-2.86,6.5-6.88,7.76-12.05h18.34c-1.57,10.03-6.05,17.99-13.46,23.87c-7.41,5.88-16.4,8.82-26.98,8.82
				C1789.85-1575.12,1779.82-1579.11,1771.91-1587.11z"/>
			<path class="st0" d="M1920.51-1584.17c-6.74,6.19-15.17,9.29-25.28,9.29c-10.11,0-18.54-3.1-25.28-9.29
				c-6.74-6.19-10.11-15.13-10.11-26.8v-49.14h17.16v49.61c0,6.11,1.51,10.93,4.53,14.46c3.02,3.53,7.58,5.29,13.7,5.29
				s10.68-1.76,13.7-5.29c3.02-3.53,4.53-8.35,4.53-14.46v-49.61h17.16v49.14C1930.62-1599.29,1927.25-1590.36,1920.51-1584.17z"/>
			<path class="st0" d="M1981.18-1590.28c4.62,0,8.23-0.84,10.82-2.53c2.59-1.69,3.88-4.06,3.88-7.12c0-2.19-0.82-4-2.47-5.41
				c-1.65-1.41-3.79-2.49-6.43-3.22c-2.64-0.74-5.53-1.54-8.65-2.42c-3.13-0.87-6.3-1.76-9.5-2.65c-3.21-0.9-6.12-2.18-8.75-3.87
				c-2.63-1.68-4.76-4.11-6.41-7.29c-1.65-3.17-2.47-6.95-2.47-11.35c0-7.29,2.74-13.4,8.23-18.34c5.49-4.94,12.89-7.41,22.22-7.41
				c9.41,0,16.87,2.67,22.4,7.99c5.53,5.33,8.41,11.95,8.64,19.87h-16.81c-0.16-3.76-1.51-6.8-4.06-9.11
				c-2.55-2.31-6.02-3.47-10.4-3.47c-4,0-7.21,0.86-9.64,2.58c-2.43,1.72-3.64,3.92-3.64,6.6c0,2.22,0.84,4.02,2.52,5.39
				c1.68,1.38,3.85,2.44,6.5,3.17c2.65,0.74,5.57,1.55,8.75,2.44c3.18,0.89,6.4,1.79,9.66,2.7c3.26,0.91,6.21,2.22,8.85,3.94
				c2.64,1.72,4.78,4.22,6.41,7.5s2.45,7.2,2.45,11.76c0,7.53-3.04,13.66-9.11,18.4c-6.08,4.74-14.05,7.11-23.93,7.11
				c-5.57,0-10.46-0.8-14.7-2.41c-4.23-1.61-7.57-3.78-9.99-6.53c-2.43-2.74-4.25-5.72-5.47-8.93c-1.22-3.21-1.9-6.62-2.06-10.23
				h16.93c0.24,3.69,1.72,6.74,4.47,9.17C1972.16-1591.5,1976.08-1590.28,1981.18-1590.28z"/>
			<path class="st0" d="M2086.87-1660.12v16.11h-22.93v67.37h-17.17v-67.37h-22.93v-16.11H2086.87z"/>
			<path class="st0" d="M2167.76-1649.54c8.15,8.23,12.23,18.62,12.23,31.16c0,12.54-4.08,22.93-12.23,31.16
				c-8.15,8.23-18.54,12.34-31.16,12.34c-12.62,0-23-4.11-31.16-12.34c-8.15-8.23-12.23-18.61-12.23-31.16
				c0-12.54,4.08-22.93,12.23-31.16c8.15-8.23,18.54-12.34,31.16-12.34C2149.22-1661.88,2159.61-1657.77,2167.76-1649.54z
				 M2154.83-1598.69c4.7-4.98,7.05-11.54,7.05-19.69c0-8.15-2.35-14.71-7.05-19.69c-4.7-4.98-10.78-7.47-18.22-7.47
				c-7.45,0-13.52,2.49-18.22,7.47c-4.7,4.98-7.05,11.54-7.05,19.69c0,8.15,2.35,14.72,7.05,19.69c4.7,4.98,10.78,7.47,18.22,7.47
				C2144.05-1591.22,2150.12-1593.71,2154.83-1598.69z"/>
			<path class="st0" d="M2214.2-1660.12l24.45,32.33l24.46-32.33h15.75v83.47h-16.46v-56.9l-23.51,30.22h-0.47l-23.51-30.22v56.9
				h-16.46v-83.47H2214.2z"/>
			<path class="st0" d="M1771.91-1465.64c-7.92-8-11.87-18.46-11.87-31.39c0-12.93,3.96-23.4,11.87-31.39
				c7.92-7.99,17.95-11.99,30.1-11.99c10.58,0,19.58,2.94,26.98,8.82c7.41,5.88,11.89,13.83,13.46,23.87h-18.34
				c-1.25-5.17-3.84-9.19-7.76-12.05c-3.92-2.86-8.7-4.29-14.34-4.29c-7.52,0-13.38,2.43-17.58,7.29
				c-4.19,4.86-6.29,11.44-6.29,19.75c0,8.31,2.1,14.89,6.29,19.75c4.19,4.86,10.05,7.29,17.58,7.29c5.64,0,10.42-1.43,14.34-4.29
				c3.92-2.86,6.5-6.88,7.76-12.05h18.34c-1.57,10.03-6.05,17.99-13.46,23.87c-7.41,5.88-16.4,8.82-26.98,8.82
				C1789.85-1453.65,1779.82-1457.65,1771.91-1465.64z"/>
			<path class="st0" d="M1929.21-1455.18h-19.87l-15.64-31.63h-16.46v31.63h-17.17v-83.47h37.86c8.86,0,15.71,2.39,20.57,7.17
				c4.86,4.78,7.29,11.09,7.29,18.93c0,5.64-1.27,10.54-3.82,14.7c-2.55,4.16-6.21,7.21-10.99,9.17L1929.21-1455.18z
				 M1905.94-1505.2c1.8-1.76,2.7-4.21,2.7-7.35c0-3.14-0.92-5.64-2.76-7.53c-1.84-1.88-4.49-2.82-7.94-2.82h-20.69v20.34h20.69
				C1901.47-1502.56,1904.13-1503.44,1905.94-1505.2z"/>
			<path class="st0" d="M2004.11-1470.93v15.75h-60.08v-83.47h60.08v15.75h-42.91v17.52h41.15v15.75h-41.15v18.69H2004.11z"/>
			<path class="st0" d="M2032.41-1455.18h-17.96l30.09-83.47h19.41l30.01,83.47h-17.08l-5.08-14.34h-34.29L2032.41-1455.18z
				 M2054.82-1517.51l-0.28,0.02l-11.56,32.57h23.37L2054.82-1517.51z"/>
			<path class="st0" d="M2155.65-1538.65v16.11h-22.93v67.37h-17.16v-67.37h-22.93v-16.11H2155.65z"/>
			<path class="st0" d="M2186.92-1538.65v83.47h-17.16v-83.47H2186.92z"/>
			<path class="st0" d="M2279.92-1528.07c8.15,8.23,12.23,18.62,12.23,31.16c0,12.54-4.08,22.93-12.23,31.16
				s-18.54,12.34-31.16,12.34c-12.62,0-23-4.11-31.16-12.34c-8.15-8.23-12.23-18.61-12.23-31.16c0-12.54,4.08-22.93,12.23-31.16
				c8.15-8.23,18.54-12.34,31.16-12.34C2261.38-1540.42,2271.76-1536.3,2279.92-1528.07z M2266.98-1477.22
				c4.7-4.98,7.05-11.54,7.05-19.69c0-8.15-2.35-14.71-7.05-19.69c-4.7-4.98-10.78-7.47-18.22-7.47c-7.45,0-13.52,2.49-18.22,7.47
				c-4.7,4.98-7.05,11.54-7.05,19.69c0,8.15,2.35,14.72,7.05,19.69c4.7,4.98,10.78,7.47,18.22,7.47
				C2256.21-1469.76,2262.28-1472.24,2266.98-1477.22z"/>
			<path class="st0" d="M2327.3-1510.32v55.14h-16.69v-83.47h17.14l36.59,55.37v-55.37h16.69v83.47h-17.28L2327.3-1510.32z"/>
			<path class="st0" d="M2431.81-1468.82c4.62,0,8.23-0.84,10.82-2.53c2.59-1.69,3.88-4.06,3.88-7.12c0-2.2-0.82-4-2.47-5.41
				c-1.65-1.41-3.79-2.49-6.43-3.22c-2.64-0.74-5.53-1.54-8.65-2.42c-3.13-0.87-6.3-1.76-9.5-2.65c-3.21-0.9-6.12-2.18-8.75-3.87
				c-2.63-1.68-4.76-4.11-6.41-7.29c-1.65-3.17-2.47-6.95-2.47-11.35c0-7.29,2.74-13.4,8.23-18.34c5.48-4.94,12.89-7.41,22.22-7.41
				c9.41,0,16.87,2.67,22.4,7.99c5.53,5.33,8.41,11.95,8.64,19.87h-16.81c-0.16-3.76-1.51-6.8-4.06-9.11
				c-2.55-2.31-6.02-3.47-10.4-3.47c-4,0-7.21,0.86-9.64,2.58c-2.43,1.72-3.65,3.92-3.65,6.6c0,2.22,0.84,4.02,2.52,5.39
				c1.68,1.38,3.85,2.44,6.5,3.17c2.65,0.74,5.57,1.55,8.75,2.44c3.18,0.89,6.4,1.79,9.66,2.7c3.26,0.91,6.21,2.22,8.85,3.94
				c2.64,1.72,4.78,4.22,6.41,7.5s2.45,7.2,2.45,11.76c0,7.53-3.04,13.66-9.11,18.4c-6.07,4.74-14.05,7.11-23.92,7.11
				c-5.57,0-10.46-0.8-14.7-2.41c-4.23-1.61-7.56-3.78-9.99-6.53c-2.43-2.74-4.25-5.72-5.47-8.93c-1.22-3.21-1.9-6.62-2.06-10.23
				h16.93c0.24,3.69,1.72,6.74,4.47,9.17C2422.8-1470.03,2426.72-1468.82,2431.81-1468.82z"/>
		</g>
		<g>
			<path class="st0" d="M2498.96-1481.8c-1.98-2-2.96-4.61-2.96-7.84c0-3.23,0.99-5.84,2.96-7.84c1.98-2,4.48-2.99,7.51-2.99
				c2.64,0,4.89,0.73,6.74,2.2s2.97,3.45,3.36,5.96h-4.58c-0.31-1.29-0.96-2.29-1.94-3.01c-0.98-0.71-2.17-1.07-3.58-1.07
				c-1.88,0-3.34,0.61-4.39,1.82c-1.05,1.21-1.57,2.86-1.57,4.93c0,2.07,0.52,3.72,1.57,4.93c1.05,1.21,2.51,1.82,4.39,1.82
				c1.41,0,2.6-0.36,3.58-1.07c0.98-0.71,1.62-1.72,1.94-3.01h4.58c-0.39,2.5-1.51,4.49-3.36,5.96c-1.85,1.47-4.09,2.2-6.74,2.2
				C2503.44-1478.8,2500.93-1479.8,2498.96-1481.8z"/>
			<path class="st0" d="M2538.28-1497.38c2.03,2.06,3.05,4.65,3.05,7.78c0,3.13-1.02,5.72-3.05,7.78c-2.04,2.05-4.63,3.08-7.78,3.08
				s-5.74-1.03-7.78-3.08c-2.03-2.05-3.05-4.65-3.05-7.78c0-3.13,1.02-5.72,3.05-7.78c2.03-2.05,4.63-3.08,7.78-3.08
				S2536.25-1499.43,2538.28-1497.38z M2535.05-1484.69c1.17-1.24,1.76-2.88,1.76-4.92c0-2.03-0.59-3.67-1.76-4.92
				c-1.17-1.24-2.69-1.86-4.55-1.86s-3.37,0.62-4.55,1.86c-1.17,1.24-1.76,2.88-1.76,4.92c0,2.03,0.59,3.67,1.76,4.92
				c1.17,1.24,2.69,1.86,4.55,1.86S2533.88-1483.44,2535.05-1484.69z"/>
			<path class="st0" d="M2549.58-1479.73c-0.53,0.52-1.2,0.78-2.03,0.78c-0.82,0-1.5-0.26-2.03-0.78c-0.53-0.52-0.79-1.19-0.79-2.01
				c0-0.8,0.26-1.47,0.79-2.01c0.53-0.54,1.2-0.81,2.03-0.81c0.8,0,1.47,0.27,2.01,0.81c0.54,0.54,0.81,1.21,0.81,2.01
				C2550.37-1480.91,2550.11-1480.24,2549.58-1479.73z"/>
		</g>
	</g>
	<g>
		<path class="st0" d="M2537.46-1240.29h-102.12h-102.06h-102.06H2129.1h-102.06v102.06v102.06h-102.06v-102.06v-102.06h-102.06
			H1720.8h-102.06h-102.06h-102.12H1414v102.06v102.06v102.12v204.68h0.57h102.12v-204.68v-102.12v-102.06h102.06h102.06h102.12
			v102.06H1720.8h-102.06v102.12v204.68h102.06v-204.68h102.12v102.06v307.43v102.12H1720.8v-204.74h-102.06v204.74v102.06h102.06
			h102.12v102.06H1720.8h-102.06h-102.06v-102.06v-102.06v-204.74h-102.12H1414v204.74v102.06v102.06v102.06h0.57h102.12h102.06
			h102.06h102.12h102.06v-102.06v-102.06h102.06v102.06v102.06h102.06h102.12h102.06h102.06h102.12h0.57v-102.06v-102.06v-102.06
			v-204.74h-0.57h-102.12v204.74v102.06v102.06h-102.06h-102.06H2129.1v-102.06h102.12h102.06v-102.06v-204.74h-102.06v204.74
			H2129.1v-102.12v-307.43v-102.06h102.12v204.68h102.06v-204.68v-102.12h-102.06H2129.1v-102.06h102.12h102.06h102.06v102.06
			v102.12v204.68h102.12h0.57v-204.68v-102.12v-102.06v-102.06H2537.46z M2027.04-831.99v307.43v102.12h-102.06v-102.12v-307.43
			v-102.06h102.06V-831.99z"/>
	</g>
	<g>
		<path class="st0" d="M2372.17,257.44h-72.05h-72.01h-72.01h-72.05h-72.01v72.01v72.01H1940v-72.01v-72.01h-72.01h-72.05h-72.01
			h-72.01h-72.05h-0.4v72.01v72.01v72.05v144.42h0.4h72.05V473.53v-72.05v-72.01h72.01h72.01h72.05v72.01h-72.05h-72.01v72.05
			v144.42h72.01V473.53h72.05v72.01v216.92v72.05h-72.05V690.05h-72.01v144.46v72.01h72.01h72.05v72.01h-72.05h-72.01h-72.01v-72.01
			v-72.01V690.05h-72.05h-0.4v144.46v72.01v72.01v72.01h0.4h72.05h72.01h72.01h72.05H1940v-72.01v-72.01h72.01v72.01v72.01h72.01
			h72.05h72.01h72.01h72.05h0.4v-72.01v-72.01v-72.01V690.05h-0.4h-72.05v144.46v72.01v72.01h-72.01h-72.01h-72.05v-72.01h72.05
			h72.01v-72.01V690.05h-72.01v144.46h-72.05v-72.05V545.54v-72.01h72.05v144.42h72.01V473.53v-72.05h-72.01h-72.05v-72.01h72.05
			h72.01h72.01v72.01v72.05v144.42h72.05h0.4V473.53v-72.05v-72.01v-72.01H2372.17z M2012.02,545.54v216.92v72.05H1940v-72.05
			V545.54v-72.01h72.01V545.54z"/>
	</g>
	<rect x="-11.41" y="-11.41" class="st0" width="1322.82" height="1322.82"/>
	<g>
		<path d="M1046.16,257.44H974.1h-72.01h-72.01h-72.05h-72.01v72.01v72.01h-72.01v-72.01v-72.01h-72.01h-72.05h-72.01H325.9h-72.05
			h-0.4v72.01v72.01v72.05v144.42h0.4h72.05V473.53v-72.05v-72.01h72.01h72.01h72.05v72.01h-72.05h-72.01v72.05v144.42h72.01V473.53
			h72.05v72.01v216.92v72.05h-72.05V690.05h-72.01v144.46v72.01h72.01h72.05v72.01h-72.05h-72.01H325.9v-72.01v-72.01V690.05h-72.05
			h-0.4v144.46v72.01v72.01v72.01h0.4h72.05h72.01h72.01h72.05h72.01v-72.01v-72.01h72.01v72.01v72.01h72.01h72.05h72.01h72.01
			h72.05h0.4v-72.01v-72.01v-72.01V690.05h-0.4H974.1v144.46v72.01v72.01h-72.01h-72.01h-72.05v-72.01h72.05h72.01v-72.01V690.05
			h-72.01v144.46h-72.05v-72.05V545.54v-72.01h72.05v144.42h72.01V473.53v-72.05h-72.01h-72.05v-72.01h72.05h72.01h72.01v72.01
			v72.05v144.42h72.05h0.4V473.53v-72.05v-72.01v-72.01H1046.16z M686.01,545.54v216.92v72.05h-72.01v-72.05V545.54v-72.01h72.01
			V545.54z"/>
	</g>
	<g>
		<path d="M1211.44-1240.29h-102.12h-102.06H905.21H803.09H701.03v102.06v102.06H598.97v-102.06v-102.06H496.91H394.79H292.73
			H190.67H88.56h-0.57v102.06v102.06v102.12v204.68h0.57h102.12v-204.68v-102.12v-102.06h102.06h102.06h102.12v102.06H394.79H292.73
			v102.12v204.68h102.06v-204.68h102.12v102.06v307.43v102.12H394.79v-204.74H292.73v204.74v102.06h102.06h102.12v102.06H394.79
			H292.73H190.67v-102.06v-102.06v-204.74H88.56h-0.57v204.74v102.06v102.06v102.06h0.57h102.12h102.06h102.06h102.12h102.06
			v-102.06v-102.06h102.06v102.06v102.06h102.06h102.12h102.06h102.06h102.12h0.57v-102.06v-102.06v-102.06v-204.74h-0.57h-102.12
			v204.74v102.06v102.06h-102.06H905.21H803.09v-102.06h102.12h102.06v-102.06v-204.74H905.21v204.74H803.09v-102.12v-307.43
			v-102.06h102.12v204.68h102.06v-204.68v-102.12H905.21H803.09v-102.06h102.12h102.06h102.06v102.06v102.12v204.68h102.12h0.57
			v-204.68v-102.12v-102.06v-102.06H1211.44z M701.03-831.99v307.43v102.12H598.97v-102.12v-307.43v-102.06h102.06V-831.99z"/>
	</g>
	<g>
		<path d="M346.24-1700.15h-24.6h-24.58h-24.58h-24.6H223.3v24.58v24.58h-24.58v-24.58v-24.58h-24.58h-24.6h-24.58h-24.58h-24.6
			h-0.14v24.58v24.58v24.6v49.3h0.14h24.6v-49.3v-24.6v-24.58h24.58h24.58h24.6v24.58h-24.6h-24.58v24.6v49.3h24.58v-49.3h24.6
			v24.58v74.05v24.6h-24.6v-49.31h-24.58v49.31v24.58h24.58h24.6v24.58h-24.6h-24.58h-24.58v-24.58v-24.58v-49.31h-24.6h-0.14v49.31
			v24.58v24.58v24.58h0.14h24.6h24.58h24.58h24.6h24.58v-24.58v-24.58h24.58v24.58v24.58h24.58h24.6h24.58h24.58h24.6h0.14v-24.58
			v-24.58v-24.58v-49.31h-0.14h-24.6v49.31v24.58v24.58h-24.58h-24.58h-24.6v-24.58h24.6h24.58v-24.58v-49.31h-24.58v49.31h-24.6
			v-24.6v-74.05v-24.58h24.6v49.3h24.58v-49.3v-24.6h-24.58h-24.6v-24.58h24.6h24.58h24.58v24.58v24.6v49.3h24.6h0.14v-49.3v-24.6
			v-24.58v-24.58H346.24z M223.3-1601.8v74.05v24.6h-24.58v-24.6v-74.05v-24.58h24.58V-1601.8z"/>
		<g>
			<path d="M445.9-1587.11c-7.92-8-11.87-18.46-11.87-31.39c0-12.93,3.96-23.4,11.87-31.39c7.92-7.99,17.95-11.99,30.1-11.99
				c10.58,0,19.58,2.94,26.98,8.82c7.41,5.88,11.89,13.83,13.46,23.87H498.1c-1.25-5.17-3.84-9.19-7.76-12.05
				c-3.92-2.86-8.7-4.29-14.34-4.29c-7.52,0-13.38,2.43-17.58,7.29c-4.19,4.86-6.29,11.44-6.29,19.75c0,8.31,2.1,14.89,6.29,19.75
				c4.19,4.86,10.05,7.29,17.58,7.29c5.64,0,10.42-1.43,14.34-4.29c3.92-2.86,6.5-6.88,7.76-12.05h18.34
				c-1.57,10.03-6.05,17.99-13.46,23.87c-7.41,5.88-16.4,8.82-26.98,8.82C463.84-1575.12,453.81-1579.11,445.9-1587.11z"/>
			<path d="M594.5-1584.17c-6.74,6.19-15.17,9.29-25.28,9.29c-10.11,0-18.54-3.1-25.28-9.29c-6.74-6.19-10.11-15.13-10.11-26.8
				v-49.14H551v49.61c0,6.11,1.51,10.93,4.53,14.46c3.02,3.53,7.58,5.29,13.7,5.29c6.11,0,10.68-1.76,13.7-5.29
				c3.02-3.53,4.53-8.35,4.53-14.46v-49.61h17.16v49.14C604.61-1599.29,601.24-1590.36,594.5-1584.17z"/>
			<path d="M655.17-1590.28c4.62,0,8.23-0.84,10.82-2.53c2.59-1.69,3.88-4.06,3.88-7.12c0-2.19-0.82-4-2.47-5.41
				c-1.65-1.41-3.79-2.49-6.43-3.22c-2.64-0.74-5.53-1.54-8.65-2.42c-3.13-0.87-6.3-1.76-9.5-2.65c-3.21-0.9-6.12-2.18-8.75-3.87
				c-2.63-1.68-4.76-4.11-6.41-7.29c-1.65-3.17-2.47-6.95-2.47-11.35c0-7.29,2.74-13.4,8.23-18.34c5.49-4.94,12.89-7.41,22.22-7.41
				c9.41,0,16.87,2.67,22.4,7.99c5.53,5.33,8.41,11.95,8.64,19.87h-16.81c-0.16-3.76-1.51-6.8-4.06-9.11
				c-2.55-2.31-6.02-3.47-10.4-3.47c-4,0-7.21,0.86-9.64,2.58c-2.43,1.72-3.64,3.92-3.64,6.6c0,2.22,0.84,4.02,2.52,5.39
				c1.68,1.38,3.85,2.44,6.5,3.17c2.65,0.74,5.57,1.55,8.75,2.44c3.18,0.89,6.4,1.79,9.66,2.7c3.26,0.91,6.21,2.22,8.85,3.94
				c2.64,1.72,4.78,4.22,6.41,7.5s2.45,7.2,2.45,11.76c0,7.53-3.04,13.66-9.11,18.4c-6.08,4.74-14.05,7.11-23.93,7.11
				c-5.57,0-10.46-0.8-14.7-2.41c-4.23-1.61-7.57-3.78-9.99-6.53c-2.43-2.74-4.25-5.72-5.47-8.93c-1.22-3.21-1.9-6.62-2.06-10.23
				h16.93c0.24,3.69,1.72,6.74,4.47,9.17C646.15-1591.5,650.07-1590.28,655.17-1590.28z"/>
			<path d="M760.86-1660.12v16.11h-22.93v67.37h-17.16v-67.37h-22.93v-16.11H760.86z"/>
			<path d="M841.75-1649.54c8.15,8.23,12.23,18.62,12.23,31.16c0,12.54-4.08,22.93-12.23,31.16c-8.15,8.23-18.54,12.34-31.16,12.34
				c-12.62,0-23-4.11-31.16-12.34c-8.15-8.23-12.23-18.61-12.23-31.16c0-12.54,4.08-22.93,12.23-31.16
				c8.15-8.23,18.54-12.34,31.16-12.34C823.21-1661.88,833.6-1657.77,841.75-1649.54z M828.82-1598.69
				c4.7-4.98,7.05-11.54,7.05-19.69c0-8.15-2.35-14.71-7.05-19.69c-4.7-4.98-10.78-7.47-18.22-7.47c-7.45,0-13.52,2.49-18.22,7.47
				c-4.7,4.98-7.05,11.54-7.05,19.69c0,8.15,2.35,14.72,7.05,19.69c4.7,4.98,10.78,7.47,18.22,7.47
				C818.04-1591.22,824.11-1593.71,828.82-1598.69z"/>
			<path d="M888.19-1660.12l24.45,32.33l24.46-32.33h15.75v83.47h-16.46v-56.9l-23.51,30.22h-0.47l-23.51-30.22v56.9h-16.46v-83.47
				H888.19z"/>
			<path d="M445.9-1465.64c-7.92-8-11.87-18.46-11.87-31.39c0-12.93,3.96-23.4,11.87-31.39c7.92-7.99,17.95-11.99,30.1-11.99
				c10.58,0,19.58,2.94,26.98,8.82c7.41,5.88,11.89,13.83,13.46,23.87H498.1c-1.25-5.17-3.84-9.19-7.76-12.05
				c-3.92-2.86-8.7-4.29-14.34-4.29c-7.52,0-13.38,2.43-17.58,7.29c-4.19,4.86-6.29,11.44-6.29,19.75c0,8.31,2.1,14.89,6.29,19.75
				c4.19,4.86,10.05,7.29,17.58,7.29c5.64,0,10.42-1.43,14.34-4.29c3.92-2.86,6.5-6.88,7.76-12.05h18.34
				c-1.57,10.03-6.05,17.99-13.46,23.87c-7.41,5.88-16.4,8.82-26.98,8.82C463.84-1453.65,453.81-1457.65,445.9-1465.64z"/>
			<path d="M603.2-1455.18h-19.87l-15.64-31.63h-16.46v31.63h-17.16v-83.47h37.86c8.86,0,15.71,2.39,20.57,7.17
				c4.86,4.78,7.29,11.09,7.29,18.93c0,5.64-1.27,10.54-3.82,14.7c-2.55,4.16-6.21,7.21-10.99,9.17L603.2-1455.18z M579.92-1505.2
				c1.8-1.76,2.7-4.21,2.7-7.35c0-3.14-0.92-5.64-2.76-7.53c-1.84-1.88-4.49-2.82-7.94-2.82h-20.69v20.34h20.69
				C575.46-1502.56,578.12-1503.44,579.92-1505.2z"/>
			<path d="M678.09-1470.93v15.75h-60.08v-83.47h60.08v15.75h-42.91v17.52h41.15v15.75h-41.15v18.69H678.09z"/>
			<path d="M706.4-1455.18h-17.96l30.09-83.47h19.41l30.01,83.47h-17.08l-5.08-14.34h-34.29L706.4-1455.18z M728.8-1517.51
				l-0.28,0.02l-11.56,32.57h23.37L728.8-1517.51z"/>
			<path d="M829.64-1538.65v16.11h-22.93v67.37h-17.16v-67.37h-22.93v-16.11H829.64z"/>
			<path d="M860.91-1538.65v83.47h-17.16v-83.47H860.91z"/>
			<path d="M953.91-1528.07c8.15,8.23,12.23,18.62,12.23,31.16c0,12.54-4.08,22.93-12.23,31.16s-18.54,12.34-31.16,12.34
				c-12.62,0-23-4.11-31.16-12.34c-8.15-8.23-12.23-18.61-12.23-31.16c0-12.54,4.08-22.93,12.23-31.16
				c8.15-8.23,18.54-12.34,31.16-12.34C935.37-1540.42,945.75-1536.3,953.91-1528.07z M940.97-1477.22
				c4.7-4.98,7.05-11.54,7.05-19.69c0-8.15-2.35-14.71-7.05-19.69c-4.7-4.98-10.78-7.47-18.22-7.47c-7.45,0-13.52,2.49-18.22,7.47
				c-4.7,4.98-7.05,11.54-7.05,19.69c0,8.15,2.35,14.72,7.05,19.69c4.7,4.98,10.78,7.47,18.22,7.47
				C930.2-1469.76,936.27-1472.24,940.97-1477.22z"/>
			<path d="M1001.28-1510.32v55.14h-16.69v-83.47h17.14l36.59,55.37v-55.37h16.69v83.47h-17.28L1001.28-1510.32z"/>
			<path d="M1105.8-1468.82c4.62,0,8.23-0.84,10.82-2.53c2.59-1.69,3.88-4.06,3.88-7.12c0-2.2-0.82-4-2.47-5.41
				c-1.65-1.41-3.79-2.49-6.43-3.22c-2.64-0.74-5.53-1.54-8.65-2.42c-3.13-0.87-6.3-1.76-9.5-2.65c-3.21-0.9-6.12-2.18-8.75-3.87
				c-2.63-1.68-4.76-4.11-6.41-7.29c-1.65-3.17-2.47-6.95-2.47-11.35c0-7.29,2.74-13.4,8.23-18.34c5.48-4.94,12.89-7.41,22.22-7.41
				c9.41,0,16.87,2.67,22.4,7.99c5.53,5.33,8.41,11.95,8.64,19.87h-16.81c-0.16-3.76-1.51-6.8-4.06-9.11
				c-2.55-2.31-6.02-3.47-10.4-3.47c-4,0-7.21,0.86-9.64,2.58c-2.43,1.72-3.65,3.92-3.65,6.6c0,2.22,0.84,4.02,2.52,5.39
				c1.68,1.38,3.85,2.44,6.5,3.17c2.65,0.74,5.57,1.55,8.75,2.44c3.18,0.89,6.4,1.79,9.66,2.7c3.26,0.91,6.21,2.22,8.85,3.94
				c2.64,1.72,4.78,4.22,6.41,7.5c1.63,3.28,2.45,7.2,2.45,11.76c0,7.53-3.04,13.66-9.11,18.4c-6.07,4.74-14.05,7.11-23.92,7.11
				c-5.57,0-10.46-0.8-14.7-2.41c-4.23-1.61-7.56-3.78-9.99-6.53c-2.43-2.74-4.25-5.72-5.47-8.93c-1.22-3.21-1.9-6.62-2.06-10.23
				h16.93c0.24,3.69,1.72,6.74,4.47,9.17C1096.79-1470.03,1100.71-1468.82,1105.8-1468.82z"/>
		</g>
		<g>
			<path d="M1172.94-1481.8c-1.98-2-2.96-4.61-2.96-7.84c0-3.23,0.99-5.84,2.96-7.84c1.98-2,4.48-2.99,7.51-2.99
				c2.64,0,4.89,0.73,6.74,2.2s2.97,3.45,3.36,5.96h-4.58c-0.31-1.29-0.96-2.29-1.94-3.01c-0.98-0.71-2.17-1.07-3.58-1.07
				c-1.88,0-3.34,0.61-4.39,1.82c-1.05,1.21-1.57,2.86-1.57,4.93c0,2.07,0.52,3.72,1.57,4.93c1.05,1.21,2.51,1.82,4.39,1.82
				c1.41,0,2.6-0.36,3.58-1.07c0.98-0.71,1.62-1.72,1.94-3.01h4.58c-0.39,2.5-1.51,4.49-3.36,5.96c-1.85,1.47-4.09,2.2-6.74,2.2
				C1177.42-1478.8,1174.92-1479.8,1172.94-1481.8z"/>
			<path d="M1212.27-1497.38c2.03,2.06,3.05,4.65,3.05,7.78c0,3.13-1.02,5.72-3.05,7.78c-2.04,2.05-4.63,3.08-7.78,3.08
				s-5.74-1.03-7.78-3.08c-2.03-2.05-3.05-4.65-3.05-7.78c0-3.13,1.02-5.72,3.05-7.78c2.03-2.05,4.63-3.08,7.78-3.08
				S1210.23-1499.43,1212.27-1497.38z M1209.04-1484.69c1.17-1.24,1.76-2.88,1.76-4.92c0-2.03-0.59-3.67-1.76-4.92
				c-1.17-1.24-2.69-1.86-4.55-1.86c-1.86,0-3.37,0.62-4.55,1.86c-1.17,1.24-1.76,2.88-1.76,4.92c0,2.03,0.59,3.67,1.76,4.92
				c1.17,1.24,2.69,1.86,4.55,1.86C1206.35-1482.82,1207.87-1483.44,1209.04-1484.69z"/>
			<path d="M1223.57-1479.73c-0.53,0.52-1.2,0.78-2.03,0.78c-0.82,0-1.5-0.26-2.03-0.78c-0.53-0.52-0.79-1.19-0.79-2.01
				c0-0.8,0.26-1.47,0.79-2.01c0.53-0.54,1.2-0.81,2.03-0.81c0.8,0,1.47,0.27,2.01,0.81c0.54,0.54,0.81,1.21,0.81,2.01
				C1224.36-1480.91,1224.1-1480.24,1223.57-1479.73z"/>
		</g>
	</g>
</g>
</svg>
