<?xml version="1.0" encoding="utf-8"?>
<!-- Generator: Adobe Illustrator 26.0.1, SVG Export Plug-In . SVG Version: 6.00 Build 0)  -->
<svg version="1.1" xmlns="http://www.w3.org/2000/svg" xmlns:xlink="http://www.w3.org/1999/xlink" x="0px" y="0px"
	 viewBox="0 0 1100 1100" style="enable-background:new 0 0 1100 1100;" xml:space="preserve">
<style type="text/css">
	.st0{fill:#FFFFFF;}
</style>
<g id="Layer_1">
</g>
<g id="Layer_2">
	<rect x="-10.77" y="-10.77" width="1121.53" height="1121.53"/>
	<g>
		<g>
			<path class="st0" d="M621.03-2232.89c0,0,7.32-17.73,3.61-69.89c-3.71-52.17-43.24-116.4-110.58-111.61
				c-91.67,6.52-141.22,125.3-146.02,148.41c0,0-15.49-63.59,36.6-138.41s123.41-96.67,166.92-99.77s115.72,18.71,122.41,112.75
				C700.44-2300.45,621.03-2232.89,621.03-2232.89z"/>
			<path class="st0" d="M455.97-2300.56c-25.53,92.96,23.63,231.9,157.1,222.4c58.59-4.17,100.94-34.3,100.94-34.3
				s-35.53,127.63-157.42,136.3c-131.37,9.35-158.92-124.07-161.65-162.42C388.58-2228.07,455.97-2300.56,455.97-2300.56z"/>
		</g>
		<g>
			<path class="st0" d="M73.2-1749.89c-11.25-11.35-16.87-26.22-16.87-44.58c0-18.37,5.62-33.23,16.87-44.58
				c11.24-11.35,25.49-17.03,42.75-17.03c15.03,0,27.8,4.17,38.32,12.52c10.52,8.35,16.89,19.65,19.12,33.9h-26.05
				c-1.78-7.35-5.46-13.05-11.02-17.12c-5.57-4.06-12.36-6.09-20.37-6.09c-10.69,0-19.01,3.45-24.96,10.35
				c-5.95,6.9-8.93,16.25-8.93,28.05c0,11.8,2.98,21.15,8.93,28.05c5.95,6.9,14.28,10.35,24.96,10.35c8.02,0,14.8-2.03,20.37-6.09
				c5.56-4.07,9.24-9.77,11.02-17.12h26.05c-2.23,14.25-8.6,25.55-19.12,33.9c-10.52,8.35-23.29,12.52-38.32,12.52
				C98.69-1732.86,84.44-1738.53,73.2-1749.89z"/>
			<path class="st0" d="M334.35-1745.72c-9.57,8.8-21.54,13.19-35.9,13.19c-14.36,0-26.33-4.39-35.9-13.19
				c-9.58-8.79-14.36-21.48-14.36-38.07v-69.8h24.38v70.47c0,8.68,2.14,15.53,6.43,20.54c4.28,5.01,10.77,7.51,19.45,7.51
				c8.68,0,15.17-2.5,19.45-7.51c4.28-5.01,6.43-11.86,6.43-20.54v-70.47h24.38v69.8C348.71-1767.2,343.92-1754.51,334.35-1745.72z"
				/>
			<path class="st0" d="M470.6-1754.4c6.57,0,11.69-1.19,15.36-3.59c3.67-2.4,5.51-5.76,5.51-10.11c0-3.12-1.17-5.68-3.51-7.68
				c-2.34-2-5.38-3.53-9.13-4.58c-3.75-1.05-7.85-2.19-12.29-3.43c-4.45-1.24-8.94-2.5-13.5-3.77c-4.55-1.27-8.69-3.1-12.42-5.5
				c-3.73-2.39-6.76-5.84-9.1-10.35c-2.34-4.51-3.51-9.88-3.51-16.11c0-10.35,3.9-19.03,11.69-26.05
				c7.79-7.01,18.31-10.52,31.56-10.52c13.36,0,23.96,3.79,31.81,11.35c7.85,7.57,11.94,16.98,12.27,28.22h-23.88
				c-0.22-5.34-2.14-9.65-5.76-12.94c-3.62-3.28-8.54-4.93-14.78-4.93c-5.68,0-10.24,1.22-13.69,3.67
				c-3.45,2.45-5.18,5.57-5.18,9.37c0,3.15,1.19,5.7,3.58,7.66c2.39,1.96,5.47,3.46,9.23,4.51c3.77,1.05,7.91,2.21,12.43,3.47
				c4.52,1.26,9.1,2.54,13.72,3.83c4.63,1.29,8.82,3.16,12.57,5.6c3.75,2.44,6.79,5.99,9.1,10.65c2.32,4.66,3.47,10.23,3.47,16.7
				c0,10.68-4.31,19.4-12.94,26.13c-8.63,6.74-19.95,10.1-33.98,10.1c-7.91,0-14.86-1.14-20.87-3.42
				c-6.01-2.28-10.74-5.37-14.19-9.27c-3.45-3.9-6.04-8.13-7.76-12.69c-1.73-4.56-2.7-9.41-2.92-14.53h24.04
				c0.33,5.23,2.45,9.57,6.35,13.02C457.8-1756.12,463.37-1754.4,470.6-1754.4z"/>
			<path class="st0" d="M670.81-1853.58v22.88h-32.56v95.68h-24.38v-95.68h-32.56v-22.88H670.81z"/>
			<path class="st0" d="M835.78-1838.55c11.58,11.69,17.36,26.44,17.36,44.25c0,17.81-5.79,32.56-17.36,44.25
				c-11.58,11.69-26.33,17.53-44.25,17.53c-17.92,0-32.67-5.84-44.25-17.53c-11.58-11.69-17.36-26.44-17.36-44.25
				c0-17.81,5.79-32.56,17.36-44.25c11.58-11.69,26.33-17.53,44.25-17.53C809.45-1856.09,824.2-1850.24,835.78-1838.55z
				 M817.41-1766.34c6.68-7.07,10.02-16.39,10.02-27.97c0-11.58-3.34-20.9-10.02-27.97c-6.68-7.07-15.31-10.6-25.88-10.6
				c-10.58,0-19.2,3.54-25.88,10.6c-6.68,7.07-10.02,16.39-10.02,27.97c0,11.58,3.34,20.9,10.02,27.97
				c6.68,7.07,15.31,10.6,25.88,10.6C802.11-1755.73,810.73-1759.27,817.41-1766.34z"/>
			<path class="st0" d="M951.83-1853.58l34.73,45.92l34.73-45.92h22.37v118.55h-23.38v-80.82l-33.4,42.91h-0.67l-33.4-42.91v80.82
				h-23.38v-118.55H951.83z"/>
		</g>
		<g>
			<path class="st0" d="M151.67-1629.3c-3.94-3.98-5.9-9.18-5.9-15.61c0-6.43,1.97-11.63,5.9-15.61s8.92-5.96,14.96-5.96
				c5.26,0,9.73,1.46,13.42,4.38c3.68,2.92,5.91,6.88,6.69,11.87h-9.12c-0.62-2.57-1.91-4.57-3.86-5.99
				c-1.95-1.42-4.33-2.13-7.13-2.13c-3.74,0-6.66,1.21-8.74,3.62c-2.08,2.41-3.13,5.69-3.13,9.82c0,4.13,1.04,7.4,3.13,9.82
				c2.08,2.42,5,3.62,8.74,3.62c2.81,0,5.18-0.71,7.13-2.13s3.23-3.42,3.86-5.99h9.12c-0.78,4.99-3.01,8.94-6.69,11.87
				c-3.68,2.92-8.16,4.38-13.42,4.38C160.59-1623.34,155.6-1625.33,151.67-1629.3z"/>
			<path class="st0" d="M261.45-1624.1h-9.88l-7.77-15.72h-8.18v15.72h-8.53v-41.5h18.82c4.4,0,7.81,1.19,10.23,3.57
				c2.41,2.37,3.62,5.51,3.62,9.41c0,2.8-0.63,5.24-1.9,7.31c-1.27,2.07-3.09,3.59-5.46,4.56L261.45-1624.1z M249.87-1648.97
				c0.9-0.88,1.34-2.1,1.34-3.65c0-1.56-0.46-2.8-1.37-3.74c-0.92-0.93-2.23-1.4-3.95-1.4h-10.29v10.11h10.29
				C247.65-1647.66,248.97-1648.1,249.87-1648.97z"/>
			<path class="st0" d="M330.24-1631.94v7.83h-29.87v-41.5h29.87v7.83h-21.34v8.71h20.46v7.83h-20.46v9.29H330.24z"/>
			<path class="st0" d="M375.88-1624.1h-8.93l14.96-41.5h9.65l14.92,41.5h-8.49l-2.53-7.13h-17.05L375.88-1624.1z M387.02-1655.09
				l-0.14,0.01l-5.75,16.19h11.62L387.02-1655.09z"/>
			<path class="st0" d="M468.72-1665.6v8.01h-11.4v33.49h-8.53v-33.49h-11.4v-8.01H468.72z"/>
			<path class="st0" d="M515.83-1665.6v41.5h-8.53v-41.5H515.83z"/>
			<path class="st0" d="M593.63-1660.34c4.05,4.09,6.08,9.26,6.08,15.49c0,6.23-2.03,11.4-6.08,15.49
				c-4.05,4.09-9.22,6.14-15.49,6.14c-6.28,0-11.44-2.05-15.49-6.14c-4.05-4.09-6.08-9.26-6.08-15.49c0-6.24,2.03-11.4,6.08-15.49
				s9.22-6.14,15.49-6.14C584.42-1666.48,589.58-1664.43,593.63-1660.34z M587.2-1635.06c2.34-2.47,3.51-5.74,3.51-9.79
				c0-4.05-1.17-7.32-3.51-9.79c-2.34-2.48-5.36-3.71-9.06-3.71c-3.7,0-6.72,1.24-9.06,3.71c-2.34,2.47-3.51,5.74-3.51,9.79
				c0,4.05,1.17,7.31,3.51,9.79c2.34,2.48,5.36,3.71,9.06,3.71C581.85-1631.35,584.86-1632.59,587.2-1635.06z"/>
			<path class="st0" d="M648.76-1651.52v27.42h-8.3v-41.5h8.52l18.19,27.53v-27.53h8.3v41.5h-8.59L648.76-1651.52z"/>
			<path class="st0" d="M732.29-1630.88c2.3,0,4.09-0.42,5.38-1.26c1.29-0.84,1.93-2.02,1.93-3.54c0-1.09-0.41-1.99-1.23-2.69
				c-0.82-0.7-1.88-1.24-3.2-1.6c-1.31-0.37-2.75-0.77-4.3-1.2c-1.56-0.44-3.13-0.87-4.72-1.32c-1.59-0.44-3.04-1.09-4.35-1.92
				c-1.31-0.84-2.37-2.05-3.19-3.62c-0.82-1.58-1.23-3.46-1.23-5.64c0-3.62,1.36-6.66,4.09-9.12c2.73-2.45,6.41-3.68,11.05-3.68
				c4.68,0,8.39,1.33,11.14,3.98c2.75,2.65,4.18,5.94,4.3,9.88h-8.36c-0.08-1.87-0.75-3.38-2.02-4.53
				c-1.27-1.15-2.99-1.72-5.17-1.72c-1.99,0-3.59,0.43-4.79,1.28c-1.21,0.86-1.81,1.95-1.81,3.28c0,1.1,0.42,2,1.25,2.68
				c0.83,0.68,1.91,1.21,3.23,1.58c1.32,0.37,2.77,0.77,4.35,1.21c1.58,0.44,3.18,0.89,4.8,1.34c1.62,0.45,3.09,1.1,4.4,1.96
				c1.31,0.86,2.38,2.1,3.19,3.73s1.22,3.58,1.22,5.85c0,3.74-1.51,6.79-4.53,9.15c-3.02,2.36-6.98,3.54-11.9,3.54
				c-2.77,0-5.2-0.4-7.31-1.2c-2.1-0.8-3.76-1.88-4.97-3.25c-1.21-1.36-2.11-2.84-2.72-4.44c-0.61-1.6-0.95-3.29-1.02-5.09h8.42
				c0.12,1.83,0.86,3.35,2.22,4.56C727.8-1631.49,729.75-1630.88,732.29-1630.88z"/>
			<path class="st0" d="M842.24-1629.3c-3.94-3.98-5.9-9.18-5.9-15.61c0-6.43,1.97-11.63,5.9-15.61c3.94-3.98,8.92-5.96,14.96-5.96
				c5.26,0,9.73,1.46,13.42,4.38c3.68,2.92,5.91,6.88,6.69,11.87h-9.12c-0.62-2.57-1.91-4.57-3.86-5.99
				c-1.95-1.42-4.33-2.13-7.13-2.13c-3.74,0-6.66,1.21-8.74,3.62c-2.08,2.41-3.13,5.69-3.13,9.82c0,4.13,1.04,7.4,3.13,9.82
				c2.08,2.42,5,3.62,8.74,3.62c2.81,0,5.18-0.71,7.13-2.13c1.95-1.42,3.23-3.42,3.86-5.99h9.12c-0.78,4.99-3.01,8.94-6.69,11.87
				c-3.68,2.92-8.16,4.38-13.42,4.38C851.16-1623.34,846.17-1625.33,842.24-1629.3z"/>
			<path class="st0" d="M952.13-1660.34c4.05,4.09,6.08,9.26,6.08,15.49c0,6.23-2.03,11.4-6.08,15.49
				c-4.05,4.09-9.22,6.14-15.49,6.14c-6.28,0-11.44-2.05-15.49-6.14c-4.05-4.09-6.08-9.26-6.08-15.49c0-6.24,2.03-11.4,6.08-15.49
				c4.05-4.09,9.22-6.14,15.49-6.14C942.91-1666.48,948.08-1664.43,952.13-1660.34z M945.7-1635.06c2.34-2.47,3.51-5.74,3.51-9.79
				c0-4.05-1.17-7.32-3.51-9.79c-2.34-2.48-5.36-3.71-9.06-3.71c-3.7,0-6.72,1.24-9.06,3.71c-2.34,2.47-3.51,5.74-3.51,9.79
				c0,4.05,1.17,7.31,3.51,9.79c2.34,2.48,5.36,3.71,9.06,3.71C940.34-1631.35,943.36-1632.59,945.7-1635.06z"/>
			<path class="st0" d="M1006.2-1625.18c-1.05,1.03-2.4,1.55-4.03,1.55s-2.98-0.52-4.03-1.55c-1.05-1.03-1.58-2.37-1.58-4
				c0-1.6,0.52-2.93,1.58-4c1.05-1.07,2.4-1.6,4.03-1.6c1.6,0,2.93,0.53,4,1.6c1.07,1.07,1.61,2.41,1.61,4
				C1007.78-1627.55,1007.25-1626.22,1006.2-1625.18z"/>
		</g>
	</g>
	<g>
		<g>
			<path class="st0" d="M740.14-767.61c0,0,17.16-41.57,8.45-163.91s-101.4-272.98-259.32-261.74
				c-214.99,15.3-331.17,293.85-342.43,348.04c0,0-36.33-149.14,85.84-324.59s289.42-226.71,391.44-233.97
				s271.38,43.87,287.08,264.41C926.38-926.04,740.14-767.61,740.14-767.61z"/>
			<path class="st0" d="M353.06-926.31c-59.87,218,55.42,543.84,368.43,521.57c137.41-9.78,236.71-80.43,236.71-80.43
				s-83.32,299.31-369.17,319.65C280.96-143.6,216.35-456.5,209.95-546.43C195.02-756.29,353.06-926.31,353.06-926.31z"/>
		</g>
	</g>
	<g>
		<g>
			<path class="st0" d="M668.29,565.46c0,0,10.68-25.86,5.26-101.97s-63.08-169.83-161.33-162.84
				c-133.75,9.52-206.03,182.81-213.04,216.53c0,0-22.6-92.78,53.4-201.94S532.64,174.2,596.12,169.68
				c63.47-4.52,168.84,27.29,178.6,164.5C784.16,466.9,668.29,565.46,668.29,565.46z"/>
			<path class="st0" d="M427.48,466.73c-37.25,135.62,34.48,338.34,229.21,324.49c85.49-6.08,147.26-50.04,147.26-50.04
				s-51.84,186.21-229.67,198.86c-191.67,13.64-231.86-181.02-235.84-236.97C329.15,572.5,427.48,466.73,427.48,466.73z"/>
		</g>
	</g>
	<rect x="-1154.97" y="-10.77" class="st0" width="1121.53" height="1121.53"/>
	<g>
		<g>
			<path d="M-475.91,565.46c0,0,10.68-25.86,5.26-101.97s-63.08-169.83-161.33-162.84c-133.75,9.52-206.03,182.81-213.04,216.53
				c0,0-22.6-92.78,53.4-201.94s180.06-141.04,243.53-145.56c63.47-4.52,168.84,27.29,178.6,164.5
				C-360.04,466.9-475.91,565.46-475.91,565.46z"/>
			<path d="M-716.72,466.73c-37.25,135.62,34.48,338.34,229.21,324.49c85.49-6.08,147.26-50.04,147.26-50.04
				s-51.84,186.21-229.67,198.86c-191.67,13.64-231.86-181.02-235.84-236.97C-815.05,572.5-716.72,466.73-716.72,466.73z"/>
		</g>
	</g>
	<g>
		<g>
			<path d="M-404.06-767.61c0,0,17.16-41.57,8.45-163.91c-8.7-122.34-101.4-272.98-259.32-261.74
				c-214.99,15.3-331.17,293.85-342.43,348.04c0,0-36.33-149.14,85.84-324.59s289.42-226.71,391.44-233.97
				s271.38,43.87,287.08,264.41C-217.82-926.04-404.06-767.61-404.06-767.61z"/>
			<path d="M-791.14-926.31c-59.87,218,55.42,543.84,368.43,521.57c137.41-9.78,236.71-80.43,236.71-80.43
				s-83.32,299.31-369.17,319.65c-308.08,21.92-372.69-290.97-379.09-380.9C-949.19-756.29-791.14-926.31-791.14-926.31z"/>
		</g>
	</g>
	<g>
		<g>
			<path d="M-523.17-2232.89c0,0,7.32-17.73,3.61-69.89c-3.71-52.17-43.24-116.4-110.58-111.61
				c-91.67,6.52-141.22,125.3-146.02,148.41c0,0-15.49-63.59,36.6-138.41s123.41-96.67,166.92-99.77s115.72,18.71,122.41,112.75
				C-443.76-2300.45-523.17-2232.89-523.17-2232.89z"/>
			<path d="M-688.23-2300.56c-25.53,92.96,23.63,231.9,157.1,222.4c58.59-4.17,100.94-34.3,100.94-34.3s-35.53,127.63-157.42,136.3
				c-131.37,9.35-158.92-124.07-161.65-162.42C-755.62-2228.07-688.23-2300.56-688.23-2300.56z"/>
		</g>
		<g>
			<path d="M-1071-1749.89c-11.25-11.35-16.86-26.22-16.86-44.58c0-18.37,5.62-33.23,16.86-44.58
				c11.24-11.35,25.49-17.03,42.75-17.03c15.03,0,27.8,4.17,38.32,12.52s16.89,19.65,19.12,33.9h-26.05
				c-1.78-7.35-5.46-13.05-11.02-17.12c-5.57-4.06-12.36-6.09-20.37-6.09c-10.69,0-19.01,3.45-24.96,10.35
				c-5.95,6.9-8.93,16.25-8.93,28.05c0,11.8,2.98,21.15,8.93,28.05c5.95,6.9,14.28,10.35,24.96,10.35c8.02,0,14.8-2.03,20.37-6.09
				c5.56-4.07,9.24-9.77,11.02-17.12h26.05c-2.23,14.25-8.6,25.55-19.12,33.9s-23.29,12.52-38.32,12.52
				C-1045.51-1732.86-1059.76-1738.53-1071-1749.89z"/>
			<path d="M-809.85-1745.72c-9.57,8.8-21.54,13.19-35.9,13.19c-14.36,0-26.33-4.39-35.9-13.19c-9.58-8.79-14.36-21.48-14.36-38.07
				v-69.8h24.38v70.47c0,8.68,2.14,15.53,6.43,20.54c4.28,5.01,10.77,7.51,19.45,7.51c8.68,0,15.17-2.5,19.45-7.51
				c4.28-5.01,6.43-11.86,6.43-20.54v-70.47h24.38v69.8C-795.49-1767.2-800.28-1754.51-809.85-1745.72z"/>
			<path d="M-673.6-1754.4c6.57,0,11.69-1.19,15.36-3.59c3.67-2.4,5.51-5.76,5.51-10.11c0-3.12-1.17-5.68-3.51-7.68
				c-2.34-2-5.38-3.53-9.13-4.58c-3.75-1.05-7.85-2.19-12.29-3.43c-4.45-1.24-8.94-2.5-13.5-3.77c-4.55-1.27-8.69-3.1-12.42-5.5
				c-3.73-2.39-6.76-5.84-9.1-10.35c-2.34-4.51-3.51-9.88-3.51-16.11c0-10.35,3.9-19.03,11.69-26.05
				c7.79-7.01,18.31-10.52,31.56-10.52c13.36,0,23.96,3.79,31.81,11.35c7.85,7.57,11.94,16.98,12.27,28.22h-23.88
				c-0.22-5.34-2.14-9.65-5.76-12.94c-3.62-3.28-8.54-4.93-14.78-4.93c-5.68,0-10.24,1.22-13.69,3.67
				c-3.45,2.45-5.18,5.57-5.18,9.37c0,3.15,1.19,5.7,3.58,7.66c2.39,1.96,5.47,3.46,9.23,4.51c3.77,1.05,7.91,2.21,12.43,3.47
				c4.52,1.26,9.1,2.54,13.72,3.83c4.63,1.29,8.82,3.16,12.57,5.6c3.75,2.44,6.79,5.99,9.1,10.65c2.32,4.66,3.47,10.23,3.47,16.7
				c0,10.68-4.31,19.4-12.94,26.13c-8.63,6.74-19.95,10.1-33.98,10.1c-7.91,0-14.86-1.14-20.87-3.42
				c-6.01-2.28-10.74-5.37-14.19-9.27c-3.45-3.9-6.04-8.13-7.76-12.69c-1.73-4.56-2.7-9.41-2.92-14.53h24.04
				c0.33,5.23,2.45,9.57,6.35,13.02C-686.4-1756.12-680.84-1754.4-673.6-1754.4z"/>
			<path d="M-473.39-1853.58v22.88h-32.56v95.68h-24.38v-95.68h-32.56v-22.88H-473.39z"/>
			<path d="M-308.42-1838.55c11.58,11.69,17.36,26.44,17.36,44.25c0,17.81-5.79,32.56-17.36,44.25
				c-11.58,11.69-26.33,17.53-44.25,17.53c-17.92,0-32.67-5.84-44.25-17.53c-11.58-11.69-17.36-26.44-17.36-44.25
				c0-17.81,5.79-32.56,17.36-44.25c11.58-11.69,26.33-17.53,44.25-17.53C-334.75-1856.09-320-1850.24-308.42-1838.55z
				 M-326.79-1766.34c6.68-7.07,10.02-16.39,10.02-27.97c0-11.58-3.34-20.9-10.02-27.97c-6.68-7.07-15.31-10.6-25.88-10.6
				c-10.58,0-19.2,3.54-25.88,10.6c-6.68,7.07-10.02,16.39-10.02,27.97c0,11.58,3.34,20.9,10.02,27.97
				c6.68,7.07,15.31,10.6,25.88,10.6C-342.09-1755.73-333.47-1759.27-326.79-1766.34z"/>
			<path d="M-192.37-1853.58l34.73,45.92l34.73-45.92h22.37v118.55h-23.38v-80.82l-33.4,42.91h-0.67l-33.4-42.91v80.82h-23.38
				v-118.55H-192.37z"/>
		</g>
		<g>
			<path d="M-992.53-1629.3c-3.94-3.98-5.9-9.18-5.9-15.61c0-6.43,1.97-11.63,5.9-15.61c3.94-3.98,8.92-5.96,14.96-5.96
				c5.26,0,9.73,1.46,13.42,4.38c3.68,2.92,5.91,6.88,6.69,11.87h-9.12c-0.62-2.57-1.91-4.57-3.86-5.99
				c-1.95-1.42-4.33-2.13-7.13-2.13c-3.74,0-6.66,1.21-8.74,3.62c-2.08,2.41-3.13,5.69-3.13,9.82c0,4.13,1.04,7.4,3.13,9.82
				c2.08,2.42,5,3.62,8.74,3.62c2.81,0,5.18-0.71,7.13-2.13c1.95-1.42,3.23-3.42,3.86-5.99h9.12c-0.78,4.99-3.01,8.94-6.69,11.87
				c-3.68,2.92-8.16,4.38-13.42,4.38C-983.61-1623.34-988.6-1625.33-992.53-1629.3z"/>
			<path d="M-882.76-1624.1h-9.88l-7.77-15.72h-8.18v15.72h-8.53v-41.5h18.82c4.4,0,7.81,1.19,10.23,3.57
				c2.41,2.37,3.62,5.51,3.62,9.41c0,2.8-0.63,5.24-1.9,7.31c-1.27,2.07-3.09,3.59-5.46,4.56L-882.76-1624.1z M-894.33-1648.97
				c0.9-0.88,1.34-2.1,1.34-3.65c0-1.56-0.46-2.8-1.37-3.74c-0.92-0.93-2.23-1.4-3.95-1.4h-10.29v10.11h10.29
				C-896.55-1647.66-895.23-1648.1-894.33-1648.97z"/>
			<path d="M-813.96-1631.94v7.83h-29.87v-41.5h29.87v7.83h-21.34v8.71h20.46v7.83h-20.46v9.29H-813.96z"/>
			<path d="M-768.32-1624.1h-8.93l14.96-41.5h9.65l14.92,41.5h-8.49l-2.53-7.13h-17.05L-768.32-1624.1z M-757.18-1655.09l-0.14,0.01
				l-5.75,16.19h11.62L-757.18-1655.09z"/>
			<path d="M-675.48-1665.6v8.01h-11.4v33.49h-8.53v-33.49h-11.4v-8.01H-675.48z"/>
			<path d="M-628.37-1665.6v41.5h-8.53v-41.5H-628.37z"/>
			<path d="M-550.57-1660.34c4.05,4.09,6.08,9.26,6.08,15.49c0,6.23-2.03,11.4-6.08,15.49c-4.05,4.09-9.22,6.14-15.49,6.14
				c-6.28,0-11.44-2.05-15.49-6.14c-4.05-4.09-6.08-9.26-6.08-15.49c0-6.24,2.03-11.4,6.08-15.49s9.22-6.14,15.49-6.14
				C-559.78-1666.48-554.62-1664.43-550.57-1660.34z M-557-1635.06c2.34-2.47,3.51-5.74,3.51-9.79c0-4.05-1.17-7.32-3.51-9.79
				c-2.34-2.48-5.36-3.71-9.06-3.71c-3.7,0-6.72,1.24-9.06,3.71c-2.34,2.47-3.51,5.74-3.51,9.79c0,4.05,1.17,7.31,3.51,9.79
				c2.34,2.48,5.36,3.71,9.06,3.71C-562.36-1631.35-559.34-1632.59-557-1635.06z"/>
			<path d="M-495.45-1651.52v27.42h-8.3v-41.5h8.52l18.19,27.53v-27.53h8.3v41.5h-8.59L-495.45-1651.52z"/>
			<path d="M-411.92-1630.88c2.3,0,4.09-0.42,5.38-1.26c1.29-0.84,1.93-2.02,1.93-3.54c0-1.09-0.41-1.99-1.23-2.69
				c-0.82-0.7-1.88-1.24-3.2-1.6c-1.31-0.37-2.75-0.77-4.3-1.2c-1.56-0.44-3.13-0.87-4.72-1.32c-1.59-0.44-3.04-1.09-4.35-1.92
				c-1.31-0.84-2.37-2.05-3.19-3.62c-0.82-1.58-1.23-3.46-1.23-5.64c0-3.62,1.36-6.66,4.09-9.12c2.73-2.45,6.41-3.68,11.05-3.68
				c4.68,0,8.39,1.33,11.14,3.98c2.75,2.65,4.18,5.94,4.3,9.88h-8.36c-0.08-1.87-0.75-3.38-2.02-4.53
				c-1.27-1.15-2.99-1.72-5.17-1.72c-1.99,0-3.59,0.43-4.79,1.28c-1.21,0.86-1.81,1.95-1.81,3.28c0,1.1,0.42,2,1.25,2.68
				c0.83,0.68,1.91,1.21,3.23,1.58c1.32,0.37,2.77,0.77,4.35,1.21c1.58,0.44,3.18,0.89,4.8,1.34c1.62,0.45,3.09,1.1,4.4,1.96
				c1.31,0.86,2.38,2.1,3.19,3.73s1.22,3.58,1.22,5.85c0,3.74-1.51,6.79-4.53,9.15c-3.02,2.36-6.98,3.54-11.9,3.54
				c-2.77,0-5.2-0.4-7.31-1.2c-2.1-0.8-3.76-1.88-4.97-3.25c-1.21-1.36-2.11-2.84-2.72-4.44c-0.61-1.6-0.95-3.29-1.02-5.09h8.42
				c0.12,1.83,0.86,3.35,2.22,4.56C-416.4-1631.49-414.45-1630.88-411.92-1630.88z"/>
			<path d="M-301.97-1629.3c-3.94-3.98-5.9-9.18-5.9-15.61c0-6.43,1.97-11.63,5.9-15.61s8.92-5.96,14.96-5.96
				c5.26,0,9.73,1.46,13.42,4.38c3.68,2.92,5.91,6.88,6.69,11.87h-9.12c-0.62-2.57-1.91-4.57-3.86-5.99
				c-1.95-1.42-4.33-2.13-7.13-2.13c-3.74,0-6.66,1.21-8.74,3.62c-2.08,2.41-3.13,5.69-3.13,9.82c0,4.13,1.04,7.4,3.13,9.82
				c2.08,2.42,5,3.62,8.74,3.62c2.81,0,5.18-0.71,7.13-2.13s3.23-3.42,3.86-5.99h9.12c-0.78,4.99-3.01,8.94-6.69,11.87
				c-3.68,2.92-8.16,4.38-13.42,4.38C-293.04-1623.34-298.03-1625.33-301.97-1629.3z"/>
			<path d="M-192.07-1660.34c4.05,4.09,6.08,9.26,6.08,15.49c0,6.23-2.03,11.4-6.08,15.49c-4.05,4.09-9.22,6.14-15.49,6.14
				c-6.28,0-11.44-2.05-15.49-6.14c-4.05-4.09-6.08-9.26-6.08-15.49c0-6.24,2.03-11.4,6.08-15.49s9.22-6.14,15.49-6.14
				C-201.29-1666.48-196.13-1664.43-192.07-1660.34z M-198.5-1635.06c2.34-2.47,3.51-5.74,3.51-9.79c0-4.05-1.17-7.32-3.51-9.79
				c-2.34-2.48-5.36-3.71-9.06-3.71c-3.7,0-6.72,1.24-9.06,3.71c-2.34,2.47-3.51,5.74-3.51,9.79c0,4.05,1.17,7.31,3.51,9.79
				c2.34,2.48,5.36,3.71,9.06,3.71C-203.86-1631.35-200.84-1632.59-198.5-1635.06z"/>
			<path d="M-138-1625.18c-1.05,1.03-2.4,1.55-4.03,1.55c-1.64,0-2.98-0.52-4.03-1.55c-1.05-1.03-1.58-2.37-1.58-4
				c0-1.6,0.52-2.93,1.58-4c1.05-1.07,2.4-1.6,4.03-1.6c1.6,0,2.93,0.53,4,1.6c1.07,1.07,1.61,2.41,1.61,4
				C-136.43-1627.55-136.95-1626.22-138-1625.18z"/>
		</g>
	</g>
</g>
</svg>
